<svg width="68" height="67" viewBox="0 0 68 67" fill="none" xmlns="http://www.w3.org/2000/svg">
<path d="M24.3911 32.6083C24.3911 33.2256 23.8972 33.7195 23.2799 33.7195H19.1095C18.4922 33.7195 17.9984 33.2256 17.9984 32.6083V28.438C17.9984 27.8206 18.4922 27.3268 19.1095 27.3268H23.2799C23.8972 27.3268 24.3911 27.8206 24.3911 28.438V32.6083ZM33.1022 28.4517C33.1022 27.8344 32.6083 27.3405 31.991 27.3405H27.8206C27.2033 27.3405 26.7095 27.8344 26.7095 28.4517V32.622C26.7095 33.2394 27.2033 33.7332 27.8206 33.7332H31.991C32.6083 33.7332 33.1022 33.2394 33.1022 32.622V28.4517ZM41.8133 28.4517C41.8133 27.8344 41.3194 27.3405 40.7021 27.3405H36.5317C35.9144 27.3405 35.4206 27.8344 35.4206 28.4517V32.622C35.4206 33.2394 35.9144 33.7332 36.5317 33.7332H40.7021C41.3194 33.7332 41.8133 33.2394 41.8133 32.622V28.4517ZM24.3911 36.9296C24.3911 36.3122 23.8972 35.8184 23.2799 35.8184H19.1095C18.4922 35.8184 17.9984 36.3122 17.9984 36.9296V41.0999C17.9984 41.7172 18.4922 42.2111 19.1095 42.2111H23.2799C23.8972 42.2111 24.3911 41.7172 24.3911 41.0999V36.9296ZM33.1022 36.9296C33.1022 36.3122 32.6083 35.8184 31.991 35.8184H27.8206C27.2033 35.8184 26.7095 36.3122 26.7095 36.9296V41.0999C26.7095 41.7172 27.2033 42.2111 27.8206 42.2111H31.991C32.6083 42.2111 33.1022 41.7172 33.1022 41.0999V36.9296ZM40.7021 35.8184H36.5317C35.9144 35.8184 35.4206 36.3122 35.4206 36.9296V41.0999C35.4206 41.7172 35.9144 42.2111 36.5317 42.2111H40.7021C41.3194 42.2111 41.8133 41.7172 41.8133 41.0999V36.9296C41.8133 36.3122 41.3194 35.8184 40.7021 35.8184ZM14.5551 44.2963H10.3984C9.78112 44.2963 9.28726 44.7901 9.28726 45.4075V49.5778C9.28726 50.1951 9.78112 50.689 10.3984 50.689H14.5688C15.1861 50.689 15.68 50.1951 15.68 49.5778V45.4075C15.68 44.7901 15.1724 44.2963 14.5551 44.2963ZM15.68 36.9296C15.68 36.3122 15.1861 35.8184 14.5688 35.8184H10.3984C9.78112 35.8184 9.28726 36.3122 9.28726 36.9296V41.0999C9.28726 41.7172 9.78112 42.2111 10.3984 42.2111H14.5688C15.1861 42.2111 15.68 41.7172 15.68 41.0999V36.9296ZM31.991 44.2963H27.8206C27.2033 44.2963 26.7095 44.7901 26.7095 45.4075V49.5778C26.7095 50.1951 27.2033 50.689 27.8206 50.689H31.991C32.6083 50.689 33.1022 50.1951 33.1022 49.5778V45.4075C33.1022 44.7901 32.6083 44.2963 31.991 44.2963ZM23.2799 44.2963H19.1095C18.4922 44.2963 17.9984 44.7901 17.9984 45.4075V49.5778C17.9984 50.1951 18.4922 50.689 19.1095 50.689H23.2799C23.8972 50.689 24.3911 50.1951 24.3911 49.5778V45.4075C24.3911 44.7901 23.8972 44.2963 23.2799 44.2963ZM49.4132 33.7332C50.0305 33.7332 50.5244 33.2394 50.5244 32.622V28.4517C50.5244 27.8344 50.0305 27.3405 49.4132 27.3405H45.2428C44.6255 27.3405 44.1317 27.8344 44.1317 28.4517V32.622C44.1317 33.2394 44.6255 33.7332 45.2428 33.7332H49.4132ZM6.54361 59.743H38.1916C37.6841 58.1517 37.396 56.4507 37.3823 54.6947H6.54361C5.72052 54.6947 5.06204 54.0225 5.06204 53.2131V23.4034H54.681V37.2725C56.4369 37.2862 58.138 37.5469 59.7293 38.0545V12.9638C59.7293 9.35586 56.7936 6.42015 53.1857 6.42015H45.8602V2.38698C45.8602 1.07002 44.7901 0 43.4732 0H39.7555C38.4386 0 37.3685 1.07002 37.3685 2.38698V6.43387H22.3608V2.38698C22.3608 1.07002 21.2907 0 19.9738 0H16.2561C14.9392 0 13.8692 1.07002 13.8692 2.38698V6.43387H6.54361C2.93571 6.43387 0 9.36957 0 12.9775V53.2131C0 56.8073 2.93571 59.743 6.54361 59.743ZM67.1097 54.5027C67.1097 61.403 61.5127 67 54.6124 67C47.7121 67 42.1151 61.403 42.1151 54.5027C42.1151 47.6024 47.7121 42.0053 54.6124 42.0053C61.5127 42.0053 67.1097 47.6024 67.1097 54.5027ZM60.9228 51.2652C60.9228 50.8673 60.7719 50.4832 60.4838 50.2088C59.8939 49.619 58.9474 49.619 58.3575 50.2088L52.9251 55.6413L50.8399 53.5561C50.25 52.9662 49.3034 52.9662 48.7136 53.5561C48.4255 53.8442 48.2746 54.2146 48.2746 54.6124C48.2746 55.0102 48.4255 55.3944 48.7136 55.6687L51.855 58.8102C52.4449 59.4001 53.3915 59.4001 53.9814 58.8102L60.4701 52.3215C60.7719 52.0471 60.9228 51.663 60.9228 51.2652Z" fill="white"/>
</svg>
